<mxfile host="app.diagrams.net" modified="2022-09-21T18:15:03.853Z" agent="5.0 (Windows NT 10.0; Win64; x64) AppleWebKit/537.36 (KHTML, like Gecko) Chrome/105.0.0.0 Safari/537.36" etag="V4nqfI9NtnCWq6v3Pq_v" version="20.3.3" type="github">
  <diagram id="AilmNCNvlQyJFaGFgLQz" name="Página-1">
    <mxGraphModel dx="445" dy="631" grid="1" gridSize="10" guides="1" tooltips="1" connect="1" arrows="1" fold="1" page="1" pageScale="1" pageWidth="827" pageHeight="1169" math="0" shadow="0">
      <root>
        <mxCell id="0" />
        <mxCell id="1" parent="0" />
        <mxCell id="jHo4qj1VF5bcGDtgd2xZ-17" value="" style="edgeStyle=orthogonalEdgeStyle;rounded=0;orthogonalLoop=1;jettySize=auto;html=1;strokeColor=#006658;fontColor=#5C5C5C;" edge="1" parent="1" source="jHo4qj1VF5bcGDtgd2xZ-1" target="jHo4qj1VF5bcGDtgd2xZ-12">
          <mxGeometry relative="1" as="geometry" />
        </mxCell>
        <mxCell id="jHo4qj1VF5bcGDtgd2xZ-1" value="inicio" style="ellipse;whiteSpace=wrap;html=1;fillColor=#21C0A5;strokeColor=#006658;fontColor=#5C5C5C;" vertex="1" parent="1">
          <mxGeometry x="330" y="20" width="60" height="40" as="geometry" />
        </mxCell>
        <mxCell id="jHo4qj1VF5bcGDtgd2xZ-14" value="" style="edgeStyle=orthogonalEdgeStyle;rounded=0;orthogonalLoop=1;jettySize=auto;html=1;strokeColor=#006658;fontColor=#5C5C5C;" edge="1" parent="1" source="jHo4qj1VF5bcGDtgd2xZ-8" target="jHo4qj1VF5bcGDtgd2xZ-13">
          <mxGeometry relative="1" as="geometry" />
        </mxCell>
        <mxCell id="jHo4qj1VF5bcGDtgd2xZ-8" value="&quot;Ingrese número a multiplicar&quot;" style="shape=document;whiteSpace=wrap;html=1;boundedLbl=1;fillColor=#21C0A5;strokeColor=#006658;fontColor=#5C5C5C;" vertex="1" parent="1">
          <mxGeometry x="300" y="140" width="120" height="60" as="geometry" />
        </mxCell>
        <mxCell id="jHo4qj1VF5bcGDtgd2xZ-19" style="edgeStyle=orthogonalEdgeStyle;rounded=0;orthogonalLoop=1;jettySize=auto;html=1;entryX=0.5;entryY=0;entryDx=0;entryDy=0;strokeColor=#006658;fontColor=#5C5C5C;" edge="1" parent="1" source="jHo4qj1VF5bcGDtgd2xZ-12" target="jHo4qj1VF5bcGDtgd2xZ-8">
          <mxGeometry relative="1" as="geometry" />
        </mxCell>
        <mxCell id="jHo4qj1VF5bcGDtgd2xZ-12" value="num&lt;br&gt;resul" style="rounded=0;whiteSpace=wrap;html=1;fillColor=#21C0A5;strokeColor=#006658;fontColor=#5C5C5C;" vertex="1" parent="1">
          <mxGeometry x="325" y="80" width="70" height="40" as="geometry" />
        </mxCell>
        <mxCell id="jHo4qj1VF5bcGDtgd2xZ-23" value="" style="edgeStyle=orthogonalEdgeStyle;rounded=0;orthogonalLoop=1;jettySize=auto;html=1;strokeColor=#006658;fontColor=#5C5C5C;" edge="1" parent="1" source="jHo4qj1VF5bcGDtgd2xZ-13" target="jHo4qj1VF5bcGDtgd2xZ-22">
          <mxGeometry relative="1" as="geometry" />
        </mxCell>
        <mxCell id="jHo4qj1VF5bcGDtgd2xZ-13" value="num" style="shape=parallelogram;perimeter=parallelogramPerimeter;whiteSpace=wrap;html=1;fixedSize=1;fillColor=#21C0A5;strokeColor=#006658;fontColor=#5C5C5C;" vertex="1" parent="1">
          <mxGeometry x="320" y="210" width="80" height="20" as="geometry" />
        </mxCell>
        <mxCell id="jHo4qj1VF5bcGDtgd2xZ-25" value="" style="edgeStyle=orthogonalEdgeStyle;rounded=0;orthogonalLoop=1;jettySize=auto;html=1;strokeColor=#006658;fontColor=#5C5C5C;" edge="1" parent="1" source="jHo4qj1VF5bcGDtgd2xZ-22" target="jHo4qj1VF5bcGDtgd2xZ-24">
          <mxGeometry relative="1" as="geometry" />
        </mxCell>
        <mxCell id="jHo4qj1VF5bcGDtgd2xZ-22" value="resul = num*9" style="shape=parallelogram;perimeter=parallelogramPerimeter;whiteSpace=wrap;html=1;fixedSize=1;fillColor=#21C0A5;strokeColor=#006658;fontColor=#5C5C5C;" vertex="1" parent="1">
          <mxGeometry x="300" y="250" width="120" height="40" as="geometry" />
        </mxCell>
        <mxCell id="jHo4qj1VF5bcGDtgd2xZ-27" value="" style="edgeStyle=orthogonalEdgeStyle;rounded=0;orthogonalLoop=1;jettySize=auto;html=1;strokeColor=#006658;fontColor=#5C5C5C;" edge="1" parent="1" source="jHo4qj1VF5bcGDtgd2xZ-24" target="jHo4qj1VF5bcGDtgd2xZ-26">
          <mxGeometry relative="1" as="geometry" />
        </mxCell>
        <mxCell id="jHo4qj1VF5bcGDtgd2xZ-24" value="&quot;Resultado es: &quot;, resul" style="shape=document;whiteSpace=wrap;html=1;boundedLbl=1;fillColor=#21C0A5;strokeColor=#006658;fontColor=#5C5C5C;" vertex="1" parent="1">
          <mxGeometry x="290" y="310" width="140" height="40" as="geometry" />
        </mxCell>
        <mxCell id="jHo4qj1VF5bcGDtgd2xZ-26" value="fin" style="ellipse;whiteSpace=wrap;html=1;fillColor=#21C0A5;strokeColor=#006658;fontColor=#5C5C5C;" vertex="1" parent="1">
          <mxGeometry x="330" y="370" width="60" height="40" as="geometry" />
        </mxCell>
      </root>
    </mxGraphModel>
  </diagram>
</mxfile>
